<svg width="48" height="48" viewBox="0 0 48 48" fill="none" xmlns="http://www.w3.org/2000/svg">
<g id="calendar 2" clip-path="url(#clip0_1_817)">
<g id="Group">
<g id="Group_2">
<path id="Vector" d="M12.0005 0C11.0536 0 10.2861 0.767511 10.2861 1.71432V5.14285H13.7147V1.71432C13.7147 0.767511 12.9472 0 12.0005 0Z" fill="#F5F5FC"/>
</g>
</g>
<g id="Group_3">
<g id="Group_4">
<path id="Vector_2" d="M36.0005 0C35.0536 0 34.2861 0.767511 34.2861 1.71432V5.14285H37.7147V1.71432C37.7148 0.767511 36.9473 0 36.0005 0Z" fill="#F5F5FC"/>
</g>
</g>
<g id="Group_5">
<g id="Group_6">
<path id="Vector_3" d="M42.8571 5.14307H37.7143V12.0002C37.7143 12.947 36.9468 13.7146 36 13.7146C35.0532 13.7146 34.2857 12.947 34.2857 12.0002V5.14307H13.7142V12.0002C13.7142 12.947 12.9467 13.7146 11.9999 13.7146C11.0531 13.7146 10.2856 12.947 10.2856 12.0002V5.14307H5.14285C2.30253 5.14307 0 7.4456 0 10.2859V42.8574C0 45.6977 2.30253 48.0002 5.14285 48.0002H42.8571C45.6975 48.0002 48 45.6977 48 42.8574V10.2859C48 7.4456 45.6975 5.14307 42.8571 5.14307ZM44.5714 42.8574C44.5714 43.8042 43.8039 44.5717 42.857 44.5717H5.14285C4.19605 44.5717 3.42854 43.8042 3.42854 42.8574V20.5716H44.5714V42.8574Z" fill="#F5F5FC"/>
</g>
</g>
<g id="Group_7">
<g id="Group_8">
<path id="Vector_4" d="M13.7141 24H10.2856C9.3388 24 8.57129 24.7675 8.57129 25.7143C8.57129 26.6611 9.3388 27.4286 10.2856 27.4286H13.7141C14.6609 27.4286 15.4285 26.6611 15.4285 25.7143C15.4285 24.7675 14.6609 24 13.7141 24Z" fill="#F5F5FC"/>
</g>
</g>
<g id="Group_9">
<g id="Group_10">
<path id="Vector_5" d="M25.7141 24H22.2856C21.3388 24 20.5713 24.7675 20.5713 25.7143C20.5713 26.6611 21.3388 27.4286 22.2856 27.4286H25.7141C26.661 27.4286 27.4285 26.6611 27.4285 25.7143C27.4285 24.7675 26.661 24 25.7141 24Z" fill="#F5F5FC"/>
</g>
</g>
<g id="Group_11">
<g id="Group_12">
<path id="Vector_6" d="M37.7141 24H34.2856C33.3388 24 32.5713 24.7675 32.5713 25.7143C32.5713 26.6611 33.3388 27.4286 34.2856 27.4286H37.7141C38.661 27.4286 39.4285 26.6611 39.4285 25.7143C39.4285 24.7675 38.6609 24 37.7141 24Z" fill="#F5F5FC"/>
</g>
</g>
<g id="Group_13">
<g id="Group_14">
<path id="Vector_7" d="M13.7141 30.8569H10.2856C9.3388 30.8569 8.57129 31.6244 8.57129 32.5713C8.57129 33.5181 9.3388 34.2856 10.2856 34.2856H13.7141C14.6609 34.2856 15.4285 33.5181 15.4285 32.5713C15.4285 31.6244 14.6609 30.8569 13.7141 30.8569Z" fill="#F5F5FC"/>
</g>
</g>
<g id="Group_15">
<g id="Group_16">
<path id="Vector_8" d="M25.7141 30.8569H22.2856C21.3388 30.8569 20.5713 31.6244 20.5713 32.5713C20.5713 33.5181 21.3388 34.2856 22.2856 34.2856H25.7141C26.661 34.2856 27.4285 33.5181 27.4285 32.5713C27.4285 31.6244 26.661 30.8569 25.7141 30.8569Z" fill="#F5F5FC"/>
</g>
</g>
<g id="Group_17">
<g id="Group_18">
<path id="Vector_9" d="M37.7141 30.8569H34.2856C33.3388 30.8569 32.5713 31.6244 32.5713 32.5713C32.5713 33.5181 33.3388 34.2856 34.2856 34.2856H37.7141C38.661 34.2856 39.4285 33.5181 39.4285 32.5713C39.4284 31.6244 38.6609 30.8569 37.7141 30.8569Z" fill="#F5F5FC"/>
</g>
</g>
<g id="Group_19">
<g id="Group_20">
<path id="Vector_10" d="M13.7141 37.7144H10.2856C9.3388 37.7144 8.57129 38.4819 8.57129 39.4287C8.57129 40.3755 9.3388 41.1429 10.2856 41.1429H13.7141C14.6609 41.1429 15.4285 40.3754 15.4285 39.4286C15.4285 38.4818 14.6609 37.7144 13.7141 37.7144Z" fill="#F5F5FC"/>
</g>
</g>
<g id="Group_21">
<g id="Group_22">
<path id="Vector_11" d="M25.7141 37.7144H22.2856C21.3388 37.7144 20.5713 38.4819 20.5713 39.4287C20.5713 40.3755 21.3388 41.143 22.2856 41.143H25.7141C26.661 41.143 27.4285 40.3755 27.4285 39.4287C27.4285 38.4819 26.661 37.7144 25.7141 37.7144Z" fill="#F5F5FC"/>
</g>
</g>
<g id="Group_23">
<g id="Group_24">
<path id="Vector_12" d="M37.7141 37.7144H34.2856C33.3388 37.7144 32.5713 38.4819 32.5713 39.4287C32.5713 40.3755 33.3388 41.143 34.2856 41.143H37.7141C38.661 41.143 39.4285 40.3755 39.4285 39.4287C39.4285 38.4819 38.6609 37.7144 37.7141 37.7144Z" fill="#F5F5FC"/>
</g>
</g>
</g>
<defs>
<clipPath id="clip0_1_817">
<rect width="48" height="48" fill="white"/>
</clipPath>
</defs>
</svg>
