<svg width="18" height="18" viewBox="0 0 18 18" fill="none" xmlns="http://www.w3.org/2000/svg">
<g id="phone 1" clip-path="url(#clip0_1_391)">
<path id="Vector" d="M16.9601 0.817506L13.5024 0.0195754C13.1267 -0.0668671 12.7411 0.129291 12.5881 0.48171L10.9923 4.20539C10.8526 4.53121 10.9457 4.91355 11.2217 5.13631L13.2365 6.78536C12.0396 9.33542 9.94832 11.4566 7.34507 12.6768L5.69602 10.662C5.46994 10.386 5.09092 10.2929 4.7651 10.4326L1.04142 12.0284C0.685674 12.1847 0.489516 12.5704 0.575959 12.9461L1.37389 16.4038C1.45701 16.7628 1.77618 17.0222 2.15187 17.0222C10.6665 17.0222 17.5785 10.1234 17.5785 1.59549C17.5785 1.22312 17.3225 0.900624 16.9601 0.817506Z" fill="white"/>
</g>
<defs>
<clipPath id="clip0_1_391">
<rect width="17.0225" height="17.0225" fill="white" transform="translate(0.556641)"/>
</clipPath>
</defs>
</svg>
