<svg width="42" height="36" viewBox="0 0 42 36" fill="none" xmlns="http://www.w3.org/2000/svg">
<g id="users-class 1" clip-path="url(#clip0_1_565)">
<path id="Vector" d="M17.3387 19.4732C16.9872 21.4838 18.3226 23.3967 20.3205 23.746C22.319 24.0953 24.2236 22.7489 24.5751 20.7382C24.9266 18.7275 23.5918 16.8148 21.5933 16.4654C19.5953 16.1161 17.6902 17.4625 17.3387 19.4732ZM30.0025 21.687C29.651 23.6977 30.9864 25.6105 32.9843 25.9598C34.9828 26.3092 36.8874 24.9627 37.2389 22.952C37.5904 20.9414 36.2556 19.0286 34.2571 18.6792C32.2591 18.33 30.354 19.6763 30.0025 21.687ZM7.65674 21.5321C9.65524 21.8815 11.5598 20.5351 11.9113 18.5244C12.2628 16.5137 10.928 14.6009 8.9295 14.2516C6.93156 13.9023 5.02639 15.2486 4.67489 17.2593C4.32339 19.27 5.6588 21.1829 7.65674 21.5321ZM34.4752 28.0962L30.857 27.4637C28.8591 27.1144 26.9539 28.4608 26.6024 30.4714L26.2842 32.2916C26.1085 33.2967 26.7762 34.2534 27.7751 34.428L35.0116 35.693C36.0106 35.8677 36.9632 35.1942 37.1389 34.1892L37.4571 32.369C37.8086 30.3583 36.4732 28.4455 34.4752 28.0962ZM21.8114 25.8824L18.1932 25.2499C16.1953 24.9006 14.2901 26.2469 13.9386 28.2576L13.6204 30.0778C13.4447 31.0828 14.1124 32.0395 15.1113 32.2142L22.3478 33.4792C23.3468 33.6538 24.2994 32.9804 24.4751 31.9753L24.7933 30.1552C25.1448 28.1445 23.8094 26.2316 21.8114 25.8824ZM9.14766 23.6685L5.52943 23.036C3.53149 22.6867 1.62633 24.0331 1.27483 26.0438L0.956636 27.8639C0.780935 28.869 1.44859 29.8257 2.44756 30.0003L9.68401 31.2654C10.683 31.44 11.6356 30.7666 11.8113 29.7615L12.1295 27.9414C12.481 25.9307 11.1456 24.0178 9.14766 23.6685ZM10.5204 5.15084L35.848 9.57851L34.5753 16.8591C35.9705 17.103 37.1356 17.8706 37.9452 18.9119L39.6095 9.3914C39.8814 7.83631 38.8854 6.35796 37.389 6.09635L10.2523 1.35242C8.7558 1.09081 7.31736 2.1436 7.04551 3.69868L5.38117 13.2192C6.49603 12.5143 7.85298 12.1876 9.24769 12.4314L10.5204 5.15084Z" fill="#545AE8"/>
</g>
<defs>
<clipPath id="clip0_1_565">
<rect width="36.731" height="29.564" fill="white" transform="translate(5.72949 0.561768) rotate(9.91602)"/>
</clipPath>
</defs>
</svg>
